AdventPro-reg.ufo
<glyph name="exclam" format="2">
  <advance width="148" height="962"/>
  <unicode hex="0021"/>
  <outline>
    <contour>
      <point x="40" y="673" type="line"/>
      <point x="40" y="699"/>
      <point x="52" y="710"/>
      <point x="73" y="710" type="curve" smooth="yes"/>
      <point x="96" y="710"/>
      <point x="107" y="698"/>
      <point x="107" y="674" type="curve"/>
      <point x="98" y="121" type="line"/>
      <point x="50" y="121" type="line"/>
    </contour>
    <contour>
      <point x="73" y="67" type="curve" smooth="yes"/>
      <point x="92" y="67"/>
      <point x="107" y="53"/>
      <point x="107" y="34" type="curve" smooth="yes"/>
      <point x="107" y="16"/>
      <point x="92" y="0"/>
      <point x="73" y="0" type="curve" smooth="yes"/>
      <point x="55" y="0"/>
      <point x="40" y="16"/>
      <point x="40" y="34" type="curve" smooth="yes"/>
      <point x="40" y="53"/>
      <point x="55" y="67"/>
    </contour>
  </outline>
</glyph>
<glyph name="percent" format="2">
  <advance width="713" height="962"/>
  <unicode hex="0025"/>
  <outline>
    <contour>
      <point x="48" y="0" type="line"/>
      <point x="587" y="700" type="line"/>
      <point x="651" y="700" type="line"/>
      <point x="116" y="0" type="line"/>
    </contour>
    <contour>
      <point x="176" y="714" type="curve" smooth="yes"/>
      <point x="256" y="714"/>
      <point x="321" y="650"/>
      <point x="321" y="568" type="curve" smooth="yes"/>
      <point x="321" y="488"/>
      <point x="256" y="422"/>
      <point x="176" y="422" type="curve" smooth="yes"/>
      <point x="95" y="422"/>
      <point x="29" y="488"/>
      <point x="29" y="568" type="curve" smooth="yes"/>
      <point x="29" y="650"/>
      <point x="95" y="714"/>
    </contour>
    <contour>
      <point x="176" y="663" type="curve" smooth="yes"/>
      <point x="124" y="663"/>
      <point x="80" y="619"/>
      <point x="80" y="568" type="curve" smooth="yes"/>
      <point x="80" y="518"/>
      <point x="124" y="474"/>
      <point x="176" y="474" type="curve" smooth="yes"/>
      <point x="227" y="474"/>
      <point x="270" y="518"/>
      <point x="270" y="568" type="curve" smooth="yes"/>
      <point x="270" y="619"/>
      <point x="227" y="663"/>
    </contour>
    <contour>
      <point x="536" y="277" type="curve" smooth="yes"/>
      <point x="617" y="277"/>
      <point x="681" y="212"/>
      <point x="681" y="132" type="curve" smooth="yes"/>
      <point x="681" y="51"/>
      <point x="617" y="-14"/>
      <point x="536" y="-14" type="curve" smooth="yes"/>
      <point x="457" y="-14"/>
      <point x="391" y="51"/>
      <point x="391" y="132" type="curve" smooth="yes"/>
      <point x="391" y="212"/>
      <point x="457" y="277"/>
    </contour>
    <contour>
      <point x="536" y="227" type="curve" smooth="yes"/>
      <point x="485" y="227"/>
      <point x="442" y="186"/>
      <point x="442" y="132" type="curve" smooth="yes"/>
      <point x="442" y="79"/>
      <point x="485" y="37"/>
      <point x="536" y="37" type="curve" smooth="yes"/>
      <point x="590" y="37"/>
      <point x="631" y="79"/>
      <point x="631" y="132" type="curve" smooth="yes"/>
      <point x="631" y="186"/>
      <point x="590" y="227"/>
    </contour>
  </outline>
</glyph>
<glyph name="nine" format="2">
  <advance width="482" height="962"/>
  <unicode hex="0039"/>
  <outline>
    <contour>
      <point x="236" y="709" type="curve" smooth="yes"/>
      <point x="355" y="709"/>
      <point x="449" y="616"/>
      <point x="449" y="497" type="curve" smooth="yes"/>
      <point x="449" y="239" type="line" smooth="yes"/>
      <point x="449" y="97"/>
      <point x="347" y="-1"/>
      <point x="205" y="-1" type="curve" smooth="yes"/>
      <point x="170" y="-1" type="line"/>
      <point x="170" y="54" type="line"/>
      <point x="208" y="54" type="line" smooth="yes"/>
      <point x="323" y="54"/>
      <point x="393" y="134"/>
      <point x="393" y="246" type="curve" smooth="yes"/>
      <point x="393" y="353" type="line"/>
      <point x="351" y="309"/>
      <point x="300" y="285"/>
      <point x="239" y="285" type="curve" smooth="yes"/>
      <point x="118" y="285"/>
      <point x="23" y="375"/>
      <point x="23" y="497" type="curve" smooth="yes"/>
      <point x="23" y="617"/>
      <point x="117" y="709"/>
    </contour>
    <contour>
      <point x="236" y="654" type="curve" smooth="yes"/>
      <point x="150" y="654"/>
      <point x="79" y="584"/>
      <point x="79" y="497" type="curve" smooth="yes"/>
      <point x="79" y="410"/>
      <point x="150" y="340"/>
      <point x="236" y="340" type="curve" smooth="yes"/>
      <point x="324" y="340"/>
      <point x="393" y="410"/>
      <point x="393" y="497" type="curve" smooth="yes"/>
      <point x="393" y="584"/>
      <point x="324" y="654"/>
    </contour>
  </outline>
</glyph>
<glyph name="H" format="2">
  <advance width="515" height="962"/>
  <unicode hex="0048"/>
  <outline>
    <contour>
      <point x="415" y="412" type="line"/>
      <point x="415" y="700" type="line"/>
      <point x="472" y="700" type="line"/>
      <point x="472" y="0" type="line"/>
      <point x="415" y="0" type="line"/>
      <point x="415" y="357" type="line"/>
      <point x="98" y="357" type="line"/>
      <point x="98" y="0" type="line"/>
      <point x="41" y="0" type="line"/>
      <point x="41" y="700" type="line"/>
      <point x="98" y="700" type="line"/>
      <point x="98" y="412" type="line"/>
    </contour>
  </outline>
</glyph>
<glyph name="a" format="2">
  <advance width="447" height="962"/>
  <unicode hex="0061"/>
  <outline>
    <contour>
      <point x="355" y="350" type="curve"/>
      <point x="355" y="449"/>
      <point x="282" y="466"/>
      <point x="201" y="466" type="curve"/>
      <point x="203" y="509" type="line"/>
      <point x="365" y="509"/>
      <point x="411" y="453"/>
      <point x="411" y="288" type="curve" smooth="yes"/>
      <point x="411" y="0" type="line"/>
      <point x="413" y="0"/>
      <point x="302" y="-9"/>
      <point x="253" y="-10" type="curve" smooth="yes"/>
      <point x="125" y="-14"/>
      <point x="26" y="21"/>
      <point x="26" y="169" type="curve" smooth="yes"/>
      <point x="26" y="252" type="line" smooth="yes"/>
      <point x="26" y="364"/>
      <point x="100" y="403"/>
      <point x="180" y="403" type="curve" smooth="yes"/>
      <point x="245" y="403"/>
      <point x="309" y="377"/>
    </contour>
    <contour>
      <point x="355" y="303" type="line"/>
      <point x="302" y="331"/>
      <point x="238" y="355"/>
      <point x="175" y="355" type="curve" smooth="yes"/>
      <point x="140" y="355"/>
      <point x="81" y="341"/>
      <point x="81" y="250" type="curve" smooth="yes"/>
      <point x="81" y="176" type="line" smooth="yes"/>
      <point x="81" y="80"/>
      <point x="115" y="32"/>
      <point x="249" y="38" type="curve" smooth="yes"/>
      <point x="315" y="41"/>
      <point x="355" y="47"/>
      <point x="355" y="46" type="curve"/>
    </contour>
  </outline>
</glyph>
<glyph name="h" format="2">
  <advance width="444" height="962"/>
  <unicode hex="0068"/>
  <outline>
    <contour>
      <point x="98" y="467" type="line"/>
      <point x="136" y="493"/>
      <point x="187" y="510"/>
      <point x="237" y="510" type="curve" smooth="yes"/>
      <point x="348" y="510"/>
      <point x="411" y="452"/>
      <point x="411" y="346" type="curve" smooth="yes"/>
      <point x="411" y="0" type="line"/>
      <point x="355" y="0" type="line"/>
      <point x="355" y="343" type="line" smooth="yes"/>
      <point x="355" y="434"/>
      <point x="290" y="460"/>
      <point x="226" y="460" type="curve" smooth="yes"/>
      <point x="180" y="460"/>
      <point x="139" y="448"/>
      <point x="98" y="425" type="curve"/>
      <point x="98" y="0" type="line"/>
      <point x="41" y="0" type="line"/>
      <point x="41" y="700" type="line"/>
      <point x="98" y="700" type="line"/>
    </contour>
  </outline>
</glyph>
<glyph name="p" format="2">
  <advance width="442" height="962"/>
  <unicode hex="0070"/>
  <outline>
    <contour>
      <point x="409" y="176" type="line" smooth="yes"/>
      <point x="409" y="54"/>
      <point x="350" y="-12"/>
      <point x="239" y="-12" type="curve" smooth="yes"/>
      <point x="176" y="-12"/>
      <point x="121" y="20"/>
      <point x="97" y="61" type="curve"/>
      <point x="97" y="-212" type="line"/>
      <point x="39" y="-188" type="line"/>
      <point x="39" y="500" type="line"/>
      <point x="97" y="500" type="line"/>
      <point x="97" y="453" type="line"/>
      <point x="141" y="489"/>
      <point x="190" y="508"/>
      <point x="239" y="510" type="curve" smooth="yes"/>
      <point x="350" y="515"/>
      <point x="409" y="452"/>
      <point x="409" y="346" type="curve" smooth="yes"/>
    </contour>
    <contour>
      <point x="352" y="343" type="line" smooth="yes"/>
      <point x="352" y="433"/>
      <point x="291" y="466"/>
      <point x="227" y="460" type="curve" smooth="yes"/>
      <point x="183" y="456"/>
      <point x="126" y="434"/>
      <point x="97" y="393" type="curve"/>
      <point x="97" y="174" type="line" smooth="yes"/>
      <point x="97" y="89"/>
      <point x="159" y="40"/>
      <point x="236" y="40" type="curve" smooth="yes"/>
      <point x="311" y="40"/>
      <point x="352" y="82"/>
      <point x="352" y="167" type="curve" smooth="yes"/>
    </contour>
  </outline>
</glyph>
<glyph name="guillemotleft" format="2">
  <advance width="530"/>
  <unicode hex="00AB"/>
  <outline>
    <contour>
      <point x="325" y="267" type="line"/>
      <point x="475" y="417" type="line"/>
      <point x="439" y="455" type="line"/>
      <point x="251" y="267" type="line"/>
      <point x="439" y="79" type="line"/>
      <point x="473" y="114" type="line"/>
    </contour>
    <contour>
      <point x="106" y="267" type="line"/>
      <point x="255" y="417" type="line"/>
      <point x="218" y="455" type="line"/>
      <point x="31" y="267" type="line"/>
      <point x="218" y="79" type="line"/>
      <point x="253" y="114" type="line"/>
    </contour>
  </outline>
</glyph>
<glyph name="AE" format="2">
  <advance width="752" height="962"/>
  <unicode hex="00C6"/>
  <outline>
    <contour>
      <point x="384" y="0" type="line"/>
      <point x="384" y="326" type="line"/>
      <point x="206.68" y="326" type="line"/>
      <point x="79" y="0" type="line"/>
      <point x="20" y="0" type="line"/>
      <point x="292" y="700" type="line"/>
      <point x="721" y="700" type="line"/>
      <point x="721" y="647" type="line"/>
      <point x="441" y="647" type="line"/>
      <point x="441" y="383.966" type="line"/>
      <point x="633" y="383.966" type="line"/>
      <point x="614" y="325.966" type="line"/>
      <point x="441" y="325.966" type="line"/>
      <point x="441" y="50" type="line"/>
      <point x="721" y="50" type="line"/>
      <point x="721" y="0" type="line"/>
    </contour>
    <contour>
      <point x="227.68" y="384" type="line"/>
      <point x="384" y="384" type="line"/>
      <point x="384" y="647" type="line"/>
      <point x="330" y="647" type="line"/>
    </contour>
  </outline>
  <guideline angle="0" x="0" y="300"/>
</glyph>
<glyph name="multiply" format="2">
  <advance width="347" height="962"/>
  <unicode hex="00D7"/>
  <outline>
    <contour>
      <point x="174" y="375" type="line"/>
      <point x="274" y="497" type="line"/>
      <point x="315" y="463" type="line"/>
      <point x="209" y="333" type="line"/>
      <point x="315" y="206" type="line"/>
      <point x="274" y="168" type="line"/>
      <point x="174" y="290" type="line"/>
      <point x="73" y="168" type="line"/>
      <point x="31" y="206" type="line"/>
      <point x="137" y="333" type="line"/>
      <point x="31" y="463" type="line"/>
      <point x="71" y="497" type="line"/>
    </contour>
  </outline>
</glyph>
<glyph name="lslash" format="2">
  <advance width="354" height="962"/>
  <unicode hex="0142"/>
  <outline>
    <component base="l" xOffset="104"/>
    <contour>
      <point x="308" y="489" type="line"/>
      <point x="331" y="439" type="line"/>
      <point x="39" y="308" type="line"/>
      <point x="17" y="357" type="line"/>
    </contour>
  </outline>
</glyph>
<glyph name="tbar" format="2">
  <advance width="271" height="962"/>
  <unicode hex="0167"/>
  <outline>
    <component base="t" xOffset="29"/>
    <contour>
      <point x="226" y="303" type="line"/>
      <point x="1" y="303" type="line"/>
      <point x="1" y="356" type="line"/>
      <point x="226" y="356" type="line"/>
    </contour>
  </outline>
</glyph>
<glyph name="tildecomb" format="2">
  <advance width="267" height="962"/>
  <unicode hex="0303"/>
  <outline>
    <contour>
      <point x="206" y="719" type="line"/>
      <point x="256" y="719" type="line"/>
      <point x="256" y="701" type="line" smooth="yes"/>
      <point x="256" y="660"/>
      <point x="236" y="619"/>
      <point x="190" y="619" type="curve" smooth="yes"/>
      <point x="168" y="619"/>
      <point x="151" y="630"/>
      <point x="134" y="640" type="curve" smooth="yes"/>
      <point x="122" y="647"/>
      <point x="110" y="656"/>
      <point x="100" y="662" type="curve" smooth="yes"/>
      <point x="90" y="669"/>
      <point x="77" y="675"/>
      <point x="67" y="668" type="curve" smooth="yes"/>
      <point x="61" y="663"/>
      <point x="61" y="647"/>
      <point x="61" y="640" type="curve" smooth="yes"/>
      <point x="61" y="622" type="line"/>
      <point x="11" y="622" type="line"/>
      <point x="11" y="640" type="line" smooth="yes"/>
      <point x="11" y="664"/>
      <point x="16" y="690"/>
      <point x="36" y="707" type="curve" smooth="yes"/>
      <point x="56" y="723"/>
      <point x="86" y="723"/>
      <point x="109" y="713" type="curve" smooth="yes"/>
      <point x="123" y="707"/>
      <point x="138" y="697"/>
      <point x="152" y="687" type="curve" smooth="yes"/>
      <point x="155" y="685"/>
      <point x="174" y="669"/>
      <point x="188" y="669" type="curve" smooth="yes"/>
      <point x="203" y="669"/>
      <point x="206" y="686"/>
      <point x="206" y="701" type="curve" smooth="yes"/>
    </contour>
  </outline>
</glyph>
<glyph name="Xi" format="2">
  <advance width="564" height="962"/>
  <unicode hex="039E"/>
  <outline>
    <contour>
      <point x="23" y="595" type="line"/>
      <point x="45" y="670"/>
      <point x="90" y="700"/>
      <point x="169" y="700" type="curve" smooth="yes"/>
      <point x="494" y="700" type="line"/>
      <point x="473" y="650" type="line"/>
      <point x="169" y="650" type="line" smooth="yes"/>
      <point x="117" y="650"/>
      <point x="84" y="627"/>
      <point x="66" y="579" type="curve"/>
    </contour>
    <contour>
      <point x="416" y="307" type="line"/>
      <point x="150" y="307" type="line"/>
      <point x="150" y="363" type="line"/>
      <point x="416" y="363" type="line"/>
    </contour>
    <contour>
      <point x="387" y="53" type="line" smooth="yes"/>
      <point x="439" y="53"/>
      <point x="473" y="77"/>
      <point x="491" y="123" type="curve"/>
      <point x="534" y="107" type="line"/>
      <point x="512" y="32"/>
      <point x="468" y="0"/>
      <point x="387" y="0" type="curve" smooth="yes"/>
      <point x="63" y="0" type="line"/>
      <point x="84" y="53" type="line"/>
    </contour>
  </outline>
</glyph>
<glyph name="uni0437" format="2">
  <advance width="396" height="962"/>
  <unicode hex="0437"/>
  <outline>
    <contour>
      <point x="90" y="444" type="curve"/>
      <point x="90" y="497" type="line"/>
      <point x="128" y="507"/>
      <point x="161" y="511"/>
      <point x="190" y="511" type="curve" smooth="yes"/>
      <point x="297" y="511"/>
      <point x="345" y="442"/>
      <point x="345" y="379" type="curve" smooth="yes"/>
      <point x="345" y="337"/>
      <point x="321" y="298"/>
      <point x="287" y="279" type="curve"/>
      <point x="340" y="257"/>
      <point x="372" y="203"/>
      <point x="372" y="149" type="curve" smooth="yes"/>
      <point x="372" y="66"/>
      <point x="315" y="-11"/>
      <point x="189" y="-11" type="curve" smooth="yes"/>
      <point x="131" y="-11"/>
      <point x="66" y="2"/>
      <point x="20" y="23" type="curve"/>
      <point x="36" y="74" type="line"/>
      <point x="84" y="56"/>
      <point x="133" y="42"/>
      <point x="179" y="42" type="curve" smooth="yes"/>
      <point x="262" y="42"/>
      <point x="316" y="87"/>
      <point x="316" y="146" type="curve" smooth="yes"/>
      <point x="316" y="222"/>
      <point x="247" y="247"/>
      <point x="208" y="247" type="curve" smooth="yes"/>
      <point x="110" y="247" type="line"/>
      <point x="90" y="301" type="line"/>
      <point x="209" y="301" type="line" smooth="yes"/>
      <point x="253" y="301"/>
      <point x="286" y="340"/>
      <point x="286" y="382" type="curve" smooth="yes"/>
      <point x="286" y="417"/>
      <point x="263" y="452"/>
      <point x="212" y="459" type="curve" smooth="yes"/>
      <point x="180" y="463"/>
      <point x="145" y="463"/>
    </contour>
  </outline>
</glyph>
<glyph name="uni0463" format="2">
  <advance width="481" height="962"/>
  <unicode hex="0463"/>
  <outline>
    <contour>
      <point x="297" y="303" type="line" smooth="yes"/>
      <point x="377" y="303"/>
      <point x="449" y="249"/>
      <point x="449" y="152" type="curve" smooth="yes"/>
      <point x="449" y="69"/>
      <point x="392" y="-8"/>
      <point x="266" y="-8" type="curve" smooth="yes"/>
      <point x="181" y="-8"/>
      <point x="79" y="2"/>
      <point x="65" y="3" type="curve"/>
      <point x="65" y="700" type="line"/>
      <point x="122" y="700" type="line"/>
      <point x="122" y="303" type="line"/>
    </contour>
    <contour>
      <point x="256" y="45" type="curve" smooth="yes"/>
      <point x="339" y="45"/>
      <point x="393" y="90"/>
      <point x="393" y="149" type="curve" smooth="yes"/>
      <point x="393" y="227"/>
      <point x="337" y="248"/>
      <point x="302" y="248" type="curve" smooth="yes"/>
      <point x="122" y="248" type="line"/>
      <point x="122" y="49" type="line"/>
      <point x="122" y="49"/>
      <point x="191" y="45"/>
    </contour>
    <contour>
      <point x="0" y="500" type="line"/>
      <point x="236" y="500" type="line"/>
      <point x="236" y="443" type="line"/>
      <point x="0" y="443" type="line"/>
    </contour>
  </outline>
</glyph>
<glyph name="uni0475" format="2">
  <advance width="449" height="962"/>
  <unicode hex="0475"/>
  <outline>
    <contour>
      <point x="413" y="512" type="curve"/>
      <point x="450" y="478" type="line"/>
      <point x="386" y="457"/>
      <point x="373" y="417"/>
      <point x="364" y="388" type="curve" smooth="yes"/>
      <point x="244" y="0" type="line"/>
      <point x="172" y="0" type="line"/>
      <point x="19" y="500" type="line"/>
      <point x="77" y="500" type="line"/>
      <point x="208" y="71" type="line"/>
      <point x="301" y="376" type="line" smooth="yes"/>
      <point x="326" y="457"/>
      <point x="350" y="499"/>
    </contour>
  </outline>
</glyph>
<glyph name="uni049D" format="2">
  <advance width="480" height="962"/>
  <unicode hex="049D"/>
  <outline>
    <contour>
      <point x="467" y="47" type="curve"/>
      <point x="467" y="-1" type="line"/>
      <point x="396" y="-1"/>
      <point x="351" y="58"/>
      <point x="313" y="111" type="curve" smooth="yes"/>
      <point x="203" y="263" type="line"/>
      <point x="179" y="263" type="line"/>
      <point x="179" y="191" type="line"/>
      <point x="121" y="191" type="line"/>
      <point x="121" y="263" type="line"/>
      <point x="95" y="263" type="line"/>
      <point x="95" y="0" type="line"/>
      <point x="38" y="0" type="line"/>
      <point x="38" y="511" type="line"/>
      <point x="95" y="498" type="line"/>
      <point x="95" y="318" type="line"/>
      <point x="121" y="318" type="line"/>
      <point x="121" y="390" type="line"/>
      <point x="179" y="390" type="line"/>
      <point x="179" y="318" type="line"/>
      <point x="194" y="318" type="line"/>
      <point x="361" y="500" type="line"/>
      <point x="435" y="500" type="line"/>
      <point x="247" y="296" type="line"/>
      <point x="374" y="118" type="line" smooth="yes"/>
      <point x="408" y="71"/>
      <point x="441" y="47"/>
    </contour>
  </outline>
</glyph>
<glyph name="uni04D8" format="2">
  <advance width="490" height="962"/>
  <unicode hex="04D8"/>
  <outline>
    <contour>
      <point x="262" y="709" type="curve" smooth="yes"/>
      <point x="372" y="709"/>
      <point x="457" y="649"/>
      <point x="457" y="509" type="curve" smooth="yes"/>
      <point x="457" y="185" type="line" smooth="yes"/>
      <point x="457" y="55"/>
      <point x="363" y="-12"/>
      <point x="245" y="-12" type="curve" smooth="yes"/>
      <point x="121" y="-12"/>
      <point x="35" y="63"/>
      <point x="35" y="185" type="curve" smooth="yes"/>
      <point x="35" y="334" type="line"/>
      <point x="400" y="350" type="line"/>
      <point x="400" y="513" type="line" smooth="yes"/>
      <point x="400" y="618"/>
      <point x="342" y="659"/>
      <point x="244" y="659" type="curve" smooth="yes"/>
      <point x="209" y="659"/>
      <point x="174" y="653"/>
      <point x="137" y="638" type="curve"/>
      <point x="120" y="676" type="line"/>
      <point x="162" y="698"/>
      <point x="210" y="709"/>
    </contour>
    <contour>
      <point x="247" y="41" type="curve" smooth="yes"/>
      <point x="335" y="41"/>
      <point x="400" y="90"/>
      <point x="400" y="186" type="curve" smooth="yes"/>
      <point x="400" y="295" type="line"/>
      <point x="91" y="281" type="line"/>
      <point x="91" y="186" type="line" smooth="yes"/>
      <point x="91" y="87"/>
      <point x="155" y="41"/>
    </contour>
  </outline>
</glyph>
<glyph name="perthousand" format="2">
  <advance width="1058" height="962"/>
  <unicode hex="2030"/>
  <outline>
    <component base="percent"/>
    <contour>
      <point x="877" y="277" type="curve" smooth="yes"/>
      <point x="958" y="277"/>
      <point x="1022" y="212"/>
      <point x="1022" y="132" type="curve" smooth="yes"/>
      <point x="1022" y="51"/>
      <point x="958" y="-14"/>
      <point x="877" y="-14" type="curve" smooth="yes"/>
      <point x="798" y="-14"/>
      <point x="732" y="51"/>
      <point x="732" y="132" type="curve" smooth="yes"/>
      <point x="732" y="212"/>
      <point x="798" y="277"/>
    </contour>
    <contour>
      <point x="877" y="227" type="curve" smooth="yes"/>
      <point x="826" y="227"/>
      <point x="783" y="186"/>
      <point x="783" y="132" type="curve" smooth="yes"/>
      <point x="783" y="79"/>
      <point x="826" y="37"/>
      <point x="877" y="37" type="curve" smooth="yes"/>
      <point x="931" y="37"/>
      <point x="972" y="79"/>
      <point x="972" y="132" type="curve" smooth="yes"/>
      <point x="972" y="186"/>
      <point x="931" y="227"/>
    </contour>
  </outline>
</glyph>
<glyph name="uni2116" format="2">
  <advance width="907" height="962"/>
  <unicode hex="2116"/>
  <outline>
    <contour>
      <point x="731" y="513" type="curve" smooth="yes"/>
      <point x="821" y="513"/>
      <point x="876" y="448"/>
      <point x="876" y="368" type="curve" smooth="yes"/>
      <point x="876" y="238" type="line" smooth="yes"/>
      <point x="876" y="158"/>
      <point x="821" y="92"/>
      <point x="731" y="92" type="curve" smooth="yes"/>
      <point x="640" y="92"/>
      <point x="584" y="158"/>
      <point x="584" y="238" type="curve" smooth="yes"/>
      <point x="584" y="368" type="line" smooth="yes"/>
      <point x="584" y="448"/>
      <point x="640" y="513"/>
    </contour>
    <contour>
      <point x="730" y="144" type="curve" smooth="yes"/>
      <point x="790" y="144"/>
      <point x="819" y="184"/>
      <point x="819" y="232" type="curve" smooth="yes"/>
      <point x="819" y="373" type="line" smooth="yes"/>
      <point x="819" y="422"/>
      <point x="790" y="461"/>
      <point x="730" y="461" type="curve" smooth="yes"/>
      <point x="670" y="461"/>
      <point x="640" y="422"/>
      <point x="640" y="373" type="curve" smooth="yes"/>
      <point x="640" y="232" type="line" smooth="yes"/>
      <point x="640" y="184"/>
      <point x="670" y="144"/>
    </contour>
    <contour>
      <point x="584" y="0" type="line"/>
      <point x="584" y="55" type="line"/>
      <point x="876" y="55" type="line"/>
      <point x="876" y="0" type="line"/>
    </contour>
    <contour>
      <point x="534" y="700" type="line"/>
      <point x="534" y="0" type="line"/>
      <point x="478" y="0" type="line"/>
      <point x="98" y="597" type="line"/>
      <point x="98" y="0" type="line"/>
      <point x="41" y="0" type="line"/>
      <point x="41" y="700" type="line"/>
      <point x="98" y="700" type="line"/>
      <point x="478" y="103" type="line"/>
      <point x="478" y="700" type="line"/>
    </contour>
  </outline>
</glyph>
<glyph name="lambda_lambda" format="2">
  <advance width="859" height="962"/>
  <outline>
    <component base="lambda" xOffset="355.5"/>
    <contour>
      <point x="434" y="-1" type="line"/>
      <point x="379" y="-1" type="line"/>
      <point x="243" y="456" type="line"/>
      <point x="220" y="443"/>
      <point x="203" y="423"/>
      <point x="185" y="360" type="curve" smooth="yes"/>
      <point x="79" y="-1" type="line"/>
      <point x="23" y="-1" type="line"/>
      <point x="132" y="371" type="line" smooth="yes"/>
      <point x="149" y="429"/>
      <point x="169" y="484"/>
      <point x="226" y="506" type="curve"/>
      <point x="204" y="578" type="line" smooth="yes"/>
      <point x="191" y="621"/>
      <point x="161" y="654"/>
      <point x="108" y="654" type="curve"/>
      <point x="118" y="697" type="line"/>
      <point x="238" y="695"/>
      <point x="255" y="600"/>
      <point x="268" y="557" type="curve" smooth="yes"/>
    </contour>
  </outline>
</glyph>
